# xmcd
#
# Track frame offsets:
#	150
#	21797
#	42980
#	116707
#	183515
#	206052
#	249605
#	266927
#
# Disc length: 4249 seconds
# Revision: 11
# Processed by: cddbd v1.5.2PL0 Copyright (c) Steve Scherf et al.
# Submitted via: dBpowerAMP V12.0
#
DISCID=77109708
DTITLE=Van Morrison - A Night in San Francisco ~ Disc 2 [dBP]
DYEAR=1994
DGENRE=Blues
TTITLE0=Jumpin' With Symphony Sid
TTITLE1=It Fills You Up
TTITLE2=I'll Take Care of You/ It's a Man's Man's Man's World
TTITLE3=Lonely Avenue/4 O'Clock in the Morning
TTITLE4=So Quiet in Here/That's Where It's At
TTITLE5=In the Garden/You Send Me/Allegheny
TTITLE6=Have I Told You Lately That I Love You?
TTITLE7=Shakin' All Over/Gloria
EXTD=
EXTT0=
EXTT1=
EXTT2=
EXTT3=
EXTT4=
EXTT5=
EXTT6=
EXTT7=
PLAYORDER=
